<svg xmlns="http://www.w3.org/2000/svg" height="24" viewBox="0 96 960 960" width="24"><path d="M240 896q-50 0-85-35t-35-85H40V336q0-33 23.5-56.5T120 256h560v160h120l120 160v200h-80q0 50-35 85t-85 35q-50 0-85-35t-35-85H360q0 50-35 85t-85 35Zm0-80q17 0 28.5-11.5T280 776q0-17-11.5-28.5T240 736q-17 0-28.5 11.5T200 776q0 17 11.5 28.5T240 816ZM120 696h32q17-18 39-29t49-11q27 0 49 11t39 29h272V336H120v360Zm600 120q17 0 28.5-11.5T760 776q0-17-11.5-28.5T720 736q-17 0-28.5 11.5T680 776q0 17 11.5 28.5T720 816Zm-40-200h170l-90-120h-80v120ZM360 516Z"/></svg>